Patient4_TMGait_0pt4_01_right_04_EMG.mot
version=1
nRows=30
nColumns=33
inDegrees=no
endheader
time	1LAddLong	2LGlutMax	3LGlutMed	4LIliopsoas	5LSemiMemb	6LBicFemLong	7LRecFem	8LVastMed	9LVastLat	10LGasMed	11LTibAnt	12lTibPost	13LPeroneusLong	14LSol	15LExtDigLong	16LFlexDigLong	17RAddLong	18RGlutMax	19RGlutMed	20RIliopsoas	21RSemiMemb	22RBicFemLong	23RRecFem	24RVastMed	25RVastLat	26RGasMed	27RTibAnt	28RTibPost	29RPeroneusLong	30RSol	31RExtDigLong	32RFlexDigLong
6.098	0.005188	0.62943	0.093079	-0.005798	0.016479	0.10376	0.005646	0.012512	0.028076	-0.3949	0.018158	0.005798	0.026245	0.50995	-0.059509	0.007172	0.032043	-0.049591	0.13184	0.026245	0.19012	0.15121	0.040894	-0.07019	0.020294	-0.029144	0.18402	-0.002747	-0.10895	-0.085297	-0.006561	0.021973
6.099	0.005951	0.62668	0.07019	0.007782	0.009918	0.077515	0.022278	0.023193	0.019836	-0.4744	0.008698	-0.040588	-0.51743	0.63705	0.013275	-0.003052	0.014343	-0.017548	0.18906	0.082092	0.12009	0.13794	0.008087	-0.082092	0.007477	-0.020142	-0.15595	0	-0.045013	-0.11749	-0.003052	0.005798
6.1	0.000458	0.62775	0.045013	0.00824	0.000153	0.060425	-0.005035	0.019836	-0.012665	-0.38544	0.001526	-0.030975	0.12573	0.625	0.11505	0.012512	0.014191	-0.071869	0.13962	0.12924	0.040741	0.1297	0.024261	-0.067444	0.030518	-0.023651	-0.13534	-0.005493	-0.082245	-0.10193	0.003357	0.00885
6.101	0.005646	0.62775	0.03891	0.002594	-0.02243	0.053101	-0.061493	0.014954	-0.031586	-0.28137	-0.016174	-0.010986	0.40329	0.448	0.067444	0.017242	-0.021973	-0.09552	0.067749	0.13001	0.006561	0.13825	0.005341	0.023956	0.019684	-0.019073	-0.094299	-0.005341	-0.16693	-0.010376	-0.000458	-0.004272
6.102	0.00412	0.6247	0.018005	-0.005493	-0.007324	0.23834	-0.084686	0.019226	0.007782	-0.18478	-0.032806	-0.003967	0.045929	0.3624	0.072174	0.00473	-0.024261	-0.060577	0.004272	0.18982	-0.025482	0.18951	-0.032654	0.022278	0.013123	-0.020905	-0.005188	-0.006104	-0.09201	-0.02533	-0.002899	0.001678
6.103	0.001678	0.57663	0.097809	0.019379	-0.028381	0.31097	-0.12207	0.00946	0.065613	-0.051117	-0.025787	-0.015564	0.21729	0.34271	0.032654	-0.006714	-0.044708	-0.036316	-0.009613	0.10254	-0.058594	0.28961	0.00824	-0.024414	0.013123	-0.007629	0.059204	-0.007172	-0.001831	-0.10239	-0.001068	0.002747
6.104	0.005798	0.49744	0.14038	0.009308	-0.002899	0.30777	-0.093231	0.001221	0.090027	0.017548	-0.045776	-0.009766	0.1236	0.20477	-0.17761	0.013885	-0.024414	-0.085297	0.062256	0.004883	-0.023499	0.28793	0.053558	-0.014801	0.003357	0.016632	0.019379	-0.000763	0.075073	-0.079193	-0.00061	0.002899
6.105	0.006866	0.42938	0.14343	0.005646	0.011139	0.23651	0.001678	-0.006866	0.053558	0.007782	0.014954	-0.012665	-0.52597	0.10834	-0.09491	0.010376	0.006866	-0.085602	0.075378	-0.094604	-0.030518	0.24948	0.013275	-0.051117	0.030823	0.036011	0.012817	-0.00412	0.19089	-0.007935	-0.001984	-0.001678
6.106	0.007629	0.36423	0.15213	0.002441	0.021515	0.14587	0.029297	-0.003052	-0.19531	0.024567	0.035248	-0.006104	0.00885	0.041809	0.00885	0.005798	-0.007324	-0.089111	0.028076	-0.051422	-0.002747	0.22614	0.006561	-0.066528	0.023041	0.014343	0.14481	-0.005646	0.22553	0.012512	0.001526	-0.002441
6.107	0.006104	0.30548	0.037384	0.007019	0.032806	-0.008392	-0.0177	-0.005951	-0.1712	-0.068665	0.036621	-0.001068	0.68436	0.064392	0.076904	0.010071	0.002899	-0.088196	-0.089417	0.058594	0.025787	0.22461	-0.001984	-0.036469	0.020599	0.015106	-0.00885	-0.005035	0.15549	0.017853	-0.00061	-0.011597
6.108	0.005798	0.18829	-0.0737	0.009766	0.025024	-0.43655	-0.020752	-0.004883	-0.088654	-0.033569	0.071564	-0.008392	-1.0486	0.094757	0.14954	-0.001678	-0.015717	-0.078125	0.0383	-0.044861	-0.037689	0.20966	-0.024261	-0.054016	0.038757	0.015106	-0.1059	-0.007019	-0.067444	0.007629	-0.001831	0.00061
6.109	0.006561	0.1329	-0.044861	-0.002747	0.02533	-0.46081	-0.033722	-0.003967	-0.067596	0.06012	0.03006	0.001831	-0.5629	-0.10315	-0.18555	-0.016632	-0.007019	-0.1239	0.42099	-0.068359	-0.071716	0.2066	-0.003662	-0.054932	0.024261	0.011902	-0.087585	-0.005188	-0.026093	-0.012207	-0.004425	-0.002136
6.11	0.000153	0.092773	0.024719	-0.005951	0.01709	-0.2565	-0.063324	-0.000153	-0.07782	0.18906	0.025787	-0.010834	0.004883	-0.1738	-0.1004	-0.002594	0.002136	-0.10208	0.43686	-0.06134	-0.05722	0.22263	0.015564	-0.063171	0.023956	0.009766	-0.0177	-0.007172	-0.010223	0.034485	-0.002747	0.003204
6.111	0.006714	0.074921	0.039978	0.001831	0.002594	-0.10437	-0.069275	0.001678	0.007019	0.28915	0.026703	-0.014954	0.27985	-0.13184	0.035553	0.009155	0.014191	-0.13901	0.11887	-0.010071	-0.01236	0.24078	0.022278	-0.083923	0.026398	0.010223	0.13077	-0.004578	-0.066376	0.018616	-0.002594	0.002747
6.112	0.014954	0.082703	0.056915	-0.007172	0.007172	-0.093231	-0.067291	0.00473	0.10346	0.31509	0.045166	-0.0177	0.36713	-0.078735	0.10925	-0.001984	0.029602	-0.10971	0.12741	0.0177	-0.010986	0.21957	-0.016479	-0.059967	0.022888	0.015106	0.32013	-0.004883	0.038147	-0.041656	-0.00351	0.003662
6.113	0.005035	0.045929	0.065613	-0.009766	0.021667	-0.00473	-0.042419	-0.002441	0.052795	0.1796	0.010223	-0.014191	0.010681	-0.053101	0.13321	0.016632	0.050964	-0.09903	-0.030212	0.081024	-0.092621	0.19852	0.0177	-0.092468	0.019836	0.016937	0.54123	-0.000305	0.050354	-0.065613	-0.006409	0.012665
6.114	0.00824	0.014343	0.042725	-0.012665	0.037079	-0.083618	-0.024261	-0.007935	0.036163	0.073242	-0.035553	-0.016785	-0.54489	-0.098419	0.042267	0.008545	0.057373	-0.06073	0.058746	0.1059	-0.10269	0.215	0.005341	-0.060425	0.015717	0.019379	0.62531	-0.001526	-0.20554	-0.04303	-0.003662	0.013123
6.115	0.014191	-0.00946	-0.035095	0.000305	0.014496	0.13794	-0.041351	0.005188	0.01358	-0.20538	-0.032501	-0.007782	-0.006866	-0.11002	0.006256	0.002136	0.059662	-0.036011	0.30746	0.084991	0.046692	0.19287	-0.025482	-0.058289	0.02243	0.02121	0.38025	-0.009155	-0.49545	-0.091705	-0.002899	0.012054
6.116	0.0177	-0.025024	-0.048676	0.001373	0.01236	0.2478	0.014954	-0.003357	0.038147	-0.023041	-0.007477	-0.014191	-0.070648	-0.11765	0.038605	0.019684	0.05661	-0.018768	0.17319	0.09079	0.11871	0.16113	0.020905	-0.035095	0.014191	0.012207	0.14023	-0.008545	-0.50095	-0.096436	-0.003052	0.014343
6.117	0.002899	-0.008545	0.037231	0.00061	0.002594	0.40649	0.070038	0.007935	0.061493	-0.086365	0.001373	-0.0177	-0.054321	-0.19424	0.021515	0.008545	0.029144	-0.003815	-0.097198	-0.009766	0.089417	0.18265	-0.019836	-0.056763	0.018463	0.023346	-0.15106	-0.008392	-0.05722	-0.069122	-0.00412	0.015869
6.118	-0.000458	-0.015717	-0.004578	0.007935	0.006409	0.47043	0.035248	0.008392	0.036316	0.006714	0.000305	-0.01709	-0.021057	-0.17883	0.017395	0.002289	-0.011749	-0.054474	-0.14008	-0.034485	0.033264	0.20538	0.01358	-0.048065	0.034637	0.038605	-0.60516	-0.005646	0.62134	-0.12039	-0.00061	0.017395
6.119	0.008392	-0.085907	0.005493	0.002136	-0.019226	0.37827	-0.021057	0.013275	0.038147	0.17166	-0.035553	-0.043335	0.29526	-0.094452	0.0177	0.015869	-0.021667	-0.042419	0.003662	-0.028076	-0.066071	0.26077	-0.010834	-0.004272	0.042877	0.036621	-0.63217	0.000153	0.36972	-0.12863	-0.001068	0.01297
6.12	0.003357	-0.083771	0.024261	0.01236	-0.01236	0.27145	-0.048676	0.007477	0.084229	0.13794	-0.037079	-0.019684	1.0504	-0.06958	0.046997	0.005951	-0.020447	-0.089874	-0.008392	-0.036926	-0.10071	0.27435	-0.023956	-0.027771	0.0383	0.032196	-0.54749	-0.007477	0.076752	-0.068512	-0.003662	0.008698
6.121	0.011749	-0.079193	0.077667	0.010223	0.007477	-0.20813	-0.058441	-0.007019	0.11841	0.08728	0	0.019531	1.944	0.009308	0.11566	0.005646	-0.010681	-0.020294	0.056458	0.066223	0.010529	0.23819	-0.033722	-0.035553	0.036926	0.044861	-0.14297	-0.005798	0.080414	-0.04303	-0.001068	0.007019
6.122	0.005035	-0.12741	0.048065	-0.012665	0.0177	-0.19409	-0.027466	0	0.031586	0.044556	-0.014496	-0.009613	0.37705	0.074615	0.14465	0.001678	-0.025024	-0.010071	0.025024	0.14786	-0.003052	0.18539	-0.048828	-0.029755	0.031891	0.044098	0.40222	-0.009308	-0.057068	0.010223	-0.005646	-0.014954
6.123	0.007935	-0.13001	0.055084	-0.000305	0.004425	-0.24368	-0.009766	0.003204	-0.012054	-0.065613	-0.001373	0.004425	-1.2947	0.056152	0.057678	-0.001678	-0.0177	-0.059814	-0.002289	0.097656	-0.050659	0.11749	-0.031738	-0.000763	0.026855	0.039368	0.10452	-0.00412	0.021057	-0.004578	0.001221	-0.027618
6.124	0.006714	-0.14297	-0.032806	0.024261	0.036926	-0.11566	-0.006256	0.012665	-0.021515	-0.12344	0.005951	-0.007172	-0.99426	-0.015106	-0.10696	0.006104	0.007019	-0.075836	0.001678	0.044708	-0.024567	0.12573	-0.032501	-0.005035	0.02655	0.029449	-0.43457	-0.004578	0.17654	-0.050659	0.000458	-0.029907
6.125	0.00885	-0.15976	-0.063171	0.0177	0.015259	-0.092773	0.001068	0.007935	-0.028839	-0.19699	-0.015411	-0.005798	0.11093	-0.14847	-0.18463	-0.002899	0.040588	-0.049133	0.10269	-0.02655	-0.11475	0.1503	0.024567	-0.054779	-0.006104	0.012207	-0.26932	-0.014801	0.11063	-0.006866	0.001373	-0.036163
6.126	0.005341	-0.11368	-0.13626	0.010529	-0.003357	0.065155	-0.002899	0.003357	-0.020294	-0.21912	-0.000305	-0.017395	-0.18173	0.13718	-0.010681	0.002747	0.000916	0.051575	-0.031738	-0.026093	-0.094452	0.2475	0.008087	-0.08194	0.022278	0.013123	0.053864	-0.004578	0.050049	0.029907	-0.002441	-0.025482
6.127	0.002441	-0.2034	-0.10361	-0.005798	0.010071	0.25986	0.00412	0.009766	-0.045013	-0.022125	0.034485	-0.013885	-0.39856	0.097656	0.00473	-0.005493	-0.025024	-0.021667	0.045471	-0.035858	-0.16892	0.31693	-0.020294	-0.012207	0.020599	0.016632	0.073547	-0.005341	0.15625	-0.03479	-0.002594	-0.006409
